# xmcd
#
# Track frame offsets:
# 150
# 15455
# 28095
# 50235
# 66092
# 84892
# 100047
# 113285
# 124297
# 138530
# 149960
# 165559
#
# Disc length: 2378 seconds
#
#
# Revision: 0
# Processed by: cddbd v1.4PL0 Copyright (c) Steve Scherf et al.
# Submitted via: FreeRIP 2.00 
#
DISCID=a309480c
DTITLE=The Rarely Herd - What About Him
DYEAR=1900
DGENRE=Gospel
TTITLE0=Search Inside An Empty Tomb
TTITLE1=God's Own Light
TTITLE2=Heartbeat
TTITLE3=Every Knee Shall Bow
TTITLE4=Just Want To Thank You Lord
TTITLE5=Keep On Walkin'
TTITLE6=Go Tell John
TTITLE7=Come And Dine
TTITLE8=When We're Gone Long Gone
TTITLE9=Walking On Holy Ground
TTITLE10=What About Him
TTITLE11=Nothing Can Hold Me Here
EXTD=
EXTT0=
EXTT1=
EXTT2=
EXTT3=
EXTT4=
EXTT5=
EXTT6=
EXTT7=
EXTT8=
EXTT9=
EXTT10=
EXTT11=
PLAYORDER=
